<svg xmlns="http://www.w3.org/2000/svg" viewBox="-0.4 -0.1 769.3 191.6" fill="none"><path d="M119.8 0L123 -0.1L128 0.8L132 2.9L136 6.5L140.3 13L141.4 18L141.3 23L140.4 27L137 33L132 37.3L128 39L126.9 41L110.4 98L106 111L105 112.6L104 112.8L89 112.7L88 113.1L86.4 116L84 118.4L79 121.4L74 122.2L69 121.3L67 120.3L63 116.7L60.5 113L59.6 110L59.6 105L60.7 101L62.6 98L65 95.6L71 92.7L77 92.5L82 94.6L88 100.6L96 100.6L96.6 100L109.2 58L114.2 39L108 35L103.7 29L101.8 21L102.8 14L105.8 8L110 3.8L116 0.7ZM117.7 12L122 11.1L125 11.8L128 14L129.3 16L130.2 20L129.4 24L127.1 27L125 28.4L121 29L118 28.2L115 26.1L113.6 24L112.7 20L113.7 16ZM91.5 40L93 39.6L93.5 41L86 64.7L73 71.6L61 79.6L45 91.8L27.6 107L43 121.3L61 135.3L76 145.2L92.5 154L87.2 172L86 174.4L74 169.1L67 165.3L54 157.2L43 149.3L28 137.3L3.6 115L-0.2 110L-0.4 107L1 103.3L10 93.8L29 76.7L43 65.6L56 56.7L68 49.6L78 44.7ZM149 40L151 39.6L155 40.5L163 43.6L172 48L188 57.6L205 69.7L224 85.8L240 101.3L242.5 105L242.9 108L242.4 111L240 114L217 135.3L192 155.2L179 163.3L167 169.4L161 172.2L149.5 176L149 175L149.6 173L157 150.4L173 141.2L183 134.5L203 118.4L214 108.4L214.6 107L202 95.7L186 82.8L173 73.8L163 67.7L162.5 68L161.7 69L124.4 191L122 191.5L102 191.2L106.8 174L126.3 112L143.7 54L146.8 44ZM614.5 44L617 43.9L619.7 45L622.4 48L623 50L622.5 53L621.4 55L618 57.2L613 57.2L611 56L608.8 53L608.6 49L609.6 47L612 44.7ZM303.4 47L309 46.3L318 46.5L327.9 50L332 52.8L336.3 57L340.2 63L342.2 69L342.5 71L342 71.9L331 72.2L329.7 71L327.3 65L323 60.7L316 57.8L311 57.4L304 58.6L300 60.7L295.5 65L292.7 69L290.7 75L289.8 81L290 90L290.8 95L294.6 103L300 108.4L304 110.3L309 111.3L314 111.2L318 110.4L323 108.3L325.7 106L328.2 103L331 97.4L342 97.4L342.6 98L342.3 100L339.3 107L334 114L327 119.2L318 122.3L312 122.7L305 122.2L299 120.5L292 116.5L287 111.9L282.7 106L279.7 99L277.7 91L277.6 80L278.8 72L281 66L283.7 61L288 55.7L293 51.7L298 48.9ZM533 47L544 47L545.7 48L561.6 96L564.8 105L566 107L568.1 102L586.1 48L587 46.9L599.2 47L599.7 48L573 121.5L560 121.6L558.6 121L549.2 94L531.6 48ZM454.4 48L455 47.1L465 47.3L466.3 48L465.8 121L465 121.5L455 121.7L454.2 121L454.5 114L454 112.7L451 117.2L445 121.4L441 122.5L437 122.6L433 122.4L429 121.2L425.1 119L422 116.3L416.6 108L414.6 97L414.7 88L415.7 83L418.7 76L422 71.8L427 67.7L432 65.6L442 65.6L445 66.8L449 69.5L454 75.3ZM371.6 66L376 65.3L383 65.4L391 67.8L395.8 71L399.4 75L402.3 80L404.2 85L404.9 96L404.3 102L402.4 108L399.3 113L395 117.5L391 120.1L385 122.3L379 122.8L372 122.3L365 119.3L360.8 116L356.7 111L353.4 103L352.5 97L352.8 89L353.7 84L355.7 79L358 75.3L362 70.9L367 67.5ZM497.3 66L502 65.2L508 65.3L516 67.7L520.8 71L524.5 75L528.4 83L529.5 90L529.6 96L529 97.3L491 97.2L490 98L490.9 103L492.7 107L496 110.4L500 112.4L506 113.3L511 112.4L515 109.8L518 105.8L528 107.1L528.5 108L527.5 111L524.8 115L521 118.4L515 121.4L510 122.6L504 122.8L498 122.3L493 120.6L488 117.3L483.6 113L480.8 108L479.5 104L478.7 100L478.5 91L479.8 84L481.7 79L485 74.1L488 71L493 67.6ZM609.8 66L620 65.8L621 66.1L621.4 67L621.4 120L621.3 121L620 121.6L610 121.6L609.5 121ZM652.2 66L657 65.2L663 65.4L668 66.7L672 68.6L675 70.7L679 75L681.5 79L683.3 84L684.2 91L683.9 97L646 97.1L644.7 98L645.7 103L647.6 107L651 110.5L655 112.5L661 113.4L666 112.2L669 110.4L673 105.7L683 107.5L683.3 108L682.1 111L678.4 116L674 119.3L669 121.5L664 122.5L656 122.7L652 122.1L647 120.1L642.4 117L637.8 112L633.9 103L632.8 92L633.9 85L635.8 80L638.9 75L643 70.6L649 67ZM690.2 66L700 65.6L702.4 66L713 106L714.3 103L724 66.2L735.1 66L746 105.6L747.2 104L757 66L768.6 66L768.9 67L753 121.1L752 121.7L742 121.7L740.5 121L730 82.7L729 83.4L718.9 121L718 121.8L707 121.8L705.9 120L696.3 86L690.6 69ZM376.1 75L380 74.8L384 75.8L388 78.6L391.5 84L393.1 92L392.4 101L390 106.9L386 111.2L384 112.3L380 113.2L374 112.4L370 109.7L366.5 105L364.6 98L364.5 90L366.5 83L370 78L372 76.4ZM438.9 75L445 75.6L449 78.3L452.4 83L454.4 90L454.4 99L452.2 105L450 108.4L447 111.2L444 112.5L441 112.9L436 112.2L431.4 109L428.6 105L426.6 98L426.7 89L429 82L431 79.2L434 76.6ZM503.9 75L509 75.5L513.6 78L516.5 82L518.1 87L518 88.1L517 88.7L491 89L490.2 88L490.8 85L494 79.7L498 76.5ZM658 75L664 75.7L669 79L671.3 82L672.2 85L672.5 88L672 88.6L646 88.7L645 88.1L646 84L649 79.1L652 76.7ZM71.6 102L76 101.6L79.2 104L79.9 108L79.4 110L77 112.5L75 113.2L73 113.1L71 112.3L68.7 110L68.1 107L68.5 105ZM285.6 148L291 147.2L296 147.8L299 149.6L301.6 153L302.3 155L302 155.9L301 156.3L298 156L295 152.4L292 151.7L288 152L286 153L284.5 155L284.5 157L286.1 159L299 163.8L302 167L302.8 170L302.3 174L300.2 177L297 179.2L291 180.4L284 179.2L281 176.8L278.7 173L279 170.7L283 170.7L285 174.3L287 175.3L291 175.7L294 175.3L296 174.1L297.6 172L297.5 169L296 167.5L285 164.2L282 162.3L279.6 159L279.3 156L279.8 153L282.4 150ZM345.6 148L353 147.4L358 149L362.2 153L364.9 160L365 166L364.2 170L362.2 174L358 178.1L353 180L348 180L345 179.3L342 177.4L338.7 174L336 167L335.9 161L337.7 155L341 150.7ZM399.6 148L401 147.5L404.9 148L404.8 175L419 175.4L419.6 176L419.6 179L419 179.8L400 179.8L399.6 179ZM452.8 148L454 147.5L458.3 148L458.6 171L461 174.2L466 175.5L470 174.5L473.2 171L473.3 148L474 147.5L478.8 148L478.6 171L477.4 174L475 177.2L471 179.4L468 180.2L464 180.3L458 178.4L454.6 175L453.6 173L452.9 169ZM512.8 148L518 147.5L537 147.5L537.8 148L537.7 151L537 152L529 152.3L527.7 153L527.7 179L527 180L524 179.9L522.7 179L522.9 153L522 152.2L513 152ZM571.5 148L576 147.5L576.8 148L576.5 179L576 179.9L572 180L571.3 179ZM620.4 148L627 147.2L630 147.5L633 148.7L637.5 153L639.4 157L640.3 160L640.4 165L639.1 171L635 176.8L631 179.4L626 180.4L620 179.1L614.7 175L611.7 169L611.1 162L611.9 157L615.6 151ZM674.7 148L678 147.4L679.9 148L696 170.2L696.5 169L696.2 148L700 147.5L701.4 148L701.5 179L701 179.8L698 180.1L696 179.1L681 157.6L679.9 158L680.1 179L679 179.9L676 180L675 179.1ZM743.4 148L748 147.4L753 147.9L756.5 150L759.2 154L759 156.2L755 156.3L753.8 154L752 152.4L750 151.6L747 151.6L744 152.5L741.7 155L741.5 157L743.1 159L756 163.6L758.4 166L759.4 168L759.5 173L758.2 176L753 179.5L747 180.3L742 179.3L738 176.6L735.8 173L736 170.7L740 170.5L743 174.4L745 175.3L749 175.5L752 174.6L754.5 172L754.4 169L753 167.4L741 163.4L736.7 159L736.6 155L737.9 152L740 149.7ZM623.8 152L628 151.9L631.9 154L634.1 157L635.3 161L635.3 166L634.3 170L632 173.3L628 175.4L624 175.3L621 174.1L618.7 172L616.5 167L616.5 160L617.9 156L620 153.7ZM346.3 153L350 152.1L354 152.5L357 154.4L359.2 158L360.3 163L359.3 169L356.7 173L353 175.1L349 175.3L346 174.4L343.5 172L341.8 169L341.2 164L341.7 159L343.7 155Z" fill="currentColor" fill-rule="evenodd"/></svg>
